<?xml version="1.0" encoding="UTF-8" standalone="no"?>
<!-- Created with Inkscape (http://www.inkscape.org/) -->

<svg
   width="743.04218"
   height="746.67511"
   viewBox="0 0 196.59658 197.5578"
   version="1.1"
   id="svg1"
   inkscape:version="1.4.3 (0d15f75, 2025-12-25)"
   xml:space="preserve"
   sodipodi:docname="drawing-2.svg"
   inkscape:export-filename="slash.svg"
   inkscape:export-xdpi="96"
   inkscape:export-ydpi="96"
   xmlns:inkscape="http://www.inkscape.org/namespaces/inkscape"
   xmlns:sodipodi="http://sodipodi.sourceforge.net/DTD/sodipodi-0.dtd"
   xmlns:xlink="http://www.w3.org/1999/xlink"
   xmlns="http://www.w3.org/2000/svg"
   xmlns:svg="http://www.w3.org/2000/svg"><sodipodi:namedview
     id="namedview1"
     pagecolor="#1b1636"
     bordercolor="#000000"
     borderopacity="0.25"
     inkscape:showpageshadow="2"
     inkscape:pageopacity="0.0"
     inkscape:pagecheckerboard="0"
     inkscape:deskcolor="#d1d1d1"
     inkscape:document-units="px"
     inkscape:zoom="1.4142136"
     inkscape:cx="909.69283"
     inkscape:cy="875.7517"
     inkscape:window-width="1920"
     inkscape:window-height="1017"
     inkscape:window-x="-8"
     inkscape:window-y="-8"
     inkscape:window-maximized="1"
     inkscape:current-layer="layer6"
     showguides="false"><sodipodi:guide
       position="357.59757,137.5274"
       orientation="1,0"
       id="guide1"
       inkscape:locked="false" /><sodipodi:guide
       position="357.20517,116.81956"
       orientation="0,-1"
       id="guide17"
       inkscape:locked="false" /><sodipodi:guide
       position="374.33387,127.00799"
       orientation="0,-1"
       id="guide29"
       inkscape:locked="false" /><sodipodi:guide
       position="374.49924,125.30474"
       orientation="0,-1"
       id="guide30"
       inkscape:locked="false" /><sodipodi:guide
       position="364.66017,114.95983"
       orientation="1,0"
       id="guide31"
       inkscape:locked="false" /><sodipodi:guide
       position="371.81631,137.6911"
       orientation="0,-1"
       id="guide33"
       inkscape:locked="false" /><inkscape:page
       x="0"
       y="0"
       width="196.59657"
       height="197.5578"
       id="page2"
       margin="0"
       bleed="0" /></sodipodi:namedview><defs
     id="defs1"><linearGradient
       id="linearGradient20"
       inkscape:collect="always"><stop
         style="stop-color:#ffffff;stop-opacity:1;"
         offset="0"
         id="stop20" /><stop
         style="stop-color:#ffffff;stop-opacity:0;"
         offset="1"
         id="stop21" /></linearGradient><linearGradient
       inkscape:collect="always"
       xlink:href="#linearGradient20"
       id="linearGradient21"
       x1="-175.93446"
       y1="-65.602982"
       x2="-283.17953"
       y2="41.03756"
       gradientUnits="userSpaceOnUse"
       gradientTransform="translate(283.69753,92.559826)" /><linearGradient
       inkscape:collect="always"
       xlink:href="#linearGradient20"
       id="linearGradient22"
       gradientUnits="userSpaceOnUse"
       x1="-175.93446"
       y1="-65.602982"
       x2="-283.17953"
       y2="41.03756"
       gradientTransform="translate(345.81097,93.308181)" /><linearGradient
       inkscape:collect="always"
       xlink:href="#linearGradient20"
       id="linearGradient24"
       gradientUnits="userSpaceOnUse"
       gradientTransform="translate(338.7016,156.91833)"
       x1="-175.93446"
       y1="-65.602982"
       x2="-283.17953"
       y2="41.03756" /></defs><path
     id="path18"
     style="fill:url(#linearGradient21);stroke:none;stroke-width:1.813"
     d="M 91.610039,23.238992 8.5590855e-6,119.76195 39.865979,87.349814 12.764199,122.19316 47.151249,95.273872 c -11.10762,15.600058 -30.04735,37.925418 -30.04735,37.925418 l 94.918931,-91.503663 -7.6296,-11.456029 z"
     sodipodi:nodetypes="ccccccccc" /><path
     id="path7"
     style="fill:#ffffff;stroke:none;stroke-width:2.52904"
     d="M 134.48312,-7.6803832e-6 112.50506,41.940692 69.710169,73.710571 l 10.39399,10.233834 -8.73417,8.770073 -11.80916,-11.627196 -11.42051,11.558184 -5.84472,-5.75468 11.42051,-11.558173 -11.80913,-11.62718 8.73415,-8.770071 10.36453,10.204827 31.36542,-42.636617 41.722051,-22.13542968 z"
     sodipodi:nodetypes="ccccccccccccccc"
     inkscape:export-filename="rep.svg"
     inkscape:export-xdpi="96"
     inkscape:export-ydpi="96" /><path
     id="path21"
     style="fill:url(#linearGradient22);stroke:none;stroke-width:1.813"
     d="M 153.72347,23.987347 62.113449,120.51031 101.97941,88.098169 74.877639,122.94152 109.26468,96.022227 C 98.157069,111.62229 79.217339,133.94765 79.217339,133.94765 l 94.918931,-91.503668 -7.6296,-11.456029 z"
     sodipodi:nodetypes="ccccccccc" /><path
     id="path22"
     style="fill:#ffffff;stroke:none;stroke-width:2.52904"
     d="M 196.59656,0.74834732 174.6185,42.689047 l -42.7949,31.769879 10.39399,10.233834 -8.73417,8.770073 -11.80916,-11.627196 -11.42051,11.558184 -5.84472,-5.75468 11.42051,-11.558173 -11.80913,-11.62718 8.73415,-8.770071 10.36453,10.204827 31.36542,-42.636617 41.72206,-22.1354297 z"
     sodipodi:nodetypes="ccccccccccccccc" /><path
     id="path23"
     style="fill:url(#linearGradient24);stroke:none;stroke-width:1.813"
     d="m 146.6141,87.597494 -91.610021,96.522966 39.86597,-32.41214 -27.10178,34.84334 34.387041,-26.91928 C 91.047699,175.23244 72.107969,197.5578 72.107969,197.5578 L 167.0269,106.05413 159.3973,94.5981 Z"
     sodipodi:nodetypes="ccccccccc" /><path
     id="path24"
     style="fill:#ffffff;stroke:none;stroke-width:2.52904"
     d="m 189.48719,64.358494 -21.97806,41.940706 -42.7949,31.76988 10.39399,10.23383 -8.73417,8.77007 -11.80916,-11.62719 -11.42051,11.55818 -5.844711,-5.75468 11.420501,-11.55817 -11.809121,-11.62718 8.734141,-8.77007 10.36453,10.20482 31.36542,-42.636616 41.72206,-22.13543 z"
     sodipodi:nodetypes="ccccccccccccccc" /></svg>
